<svg width="25" height="125" viewBox="0 0 25 125" fill="none" xmlns="http://www.w3.org/2000/svg">
<path d="M7.91 122.23C7.91 121.803 7.99 121.44 8.15 121.14C8.30333 120.833 8.49333 120.6 8.72 120.44C8.94667 120.28 9.24333 120.153 9.61 120.06C9.97 119.967 10.2967 119.91 10.59 119.89C10.8767 119.87 11.2233 119.86 11.63 119.86C12.0033 119.86 12.34 119.877 12.64 119.91C12.94 119.937 13.2533 120 13.58 120.1C13.9067 120.193 14.18 120.323 14.4 120.49C14.6133 120.657 14.79 120.883 14.93 121.17C15.07 121.457 15.14 121.797 15.14 122.19C15.14 122.603 15.07 122.963 14.93 123.27C14.7833 123.57 14.6033 123.803 14.39 123.97C14.1767 124.137 13.9067 124.27 13.58 124.37C13.2467 124.463 12.9333 124.523 12.64 124.55C12.34 124.577 11.9967 124.59 11.61 124.59C11.2767 124.59 10.9867 124.583 10.74 124.57C10.4933 124.55 10.2167 124.517 9.91 124.47C9.59667 124.417 9.33333 124.337 9.12 124.23C8.9 124.123 8.69333 123.987 8.5 123.82C8.30667 123.653 8.16 123.437 8.06 123.17C7.96 122.897 7.91 122.583 7.91 122.23ZM8.79 121.68C8.71 121.84 8.67 122.023 8.67 122.23C8.67 122.437 8.71 122.62 8.79 122.78C8.86333 122.94 8.95 123.07 9.05 123.17C9.15 123.27 9.3 123.357 9.5 123.43C9.69333 123.503 9.85667 123.557 9.99 123.59C10.1233 123.617 10.3167 123.64 10.57 123.66C10.8167 123.68 10.9933 123.69 11.1 123.69C11.2 123.69 11.37 123.69 11.61 123.69C11.8433 123.69 12.0367 123.687 12.19 123.68C12.3433 123.673 12.5433 123.657 12.79 123.63C13.0367 123.603 13.2433 123.557 13.41 123.49C13.57 123.423 13.7333 123.34 13.9 123.24C14.06 123.14 14.1833 123.003 14.27 122.83C14.35 122.65 14.39 122.443 14.39 122.21C14.39 122.01 14.3533 121.833 14.28 121.68C14.2067 121.52 14.12 121.39 14.02 121.29C13.92 121.19 13.78 121.107 13.6 121.04C13.4133 120.967 13.2533 120.913 13.12 120.88C12.98 120.847 12.7967 120.823 12.57 120.81C12.3367 120.79 12.1667 120.78 12.06 120.78C11.9467 120.773 11.7833 120.77 11.57 120.77C11.3367 120.77 11.17 120.77 11.07 120.77C10.97 120.77 10.7967 120.78 10.55 120.8C10.3033 120.82 10.1133 120.847 9.98 120.88C9.84667 120.907 9.68333 120.957 9.49 121.03C9.29667 121.103 9.15 121.19 9.05 121.29C8.95 121.39 8.86333 121.52 8.79 121.68ZM7.92 115.863L15 115.863L15 116.793L9.87 116.793L9.87 118.573L9.23 118.573C9.23 118 9.13667 117.547 8.95 117.213C8.76333 116.873 8.42 116.647 7.92 116.533L7.92 115.863Z" fill="#757575"/>
<path d="M7.492 10.676C7.492 10.164 7.588 9.728 7.78 9.368C7.964 9 8.192 8.72 8.464 8.528C8.736 8.336 9.092 8.184 9.532 8.072C9.964 7.96 10.356 7.892 10.708 7.868C11.052 7.844 11.468 7.832 11.956 7.832C12.404 7.832 12.808 7.852 13.168 7.892C13.528 7.924 13.904 8 14.296 8.12C14.688 8.232 15.016 8.388 15.28 8.588C15.536 8.788 15.748 9.06 15.916 9.404C16.084 9.748 16.168 10.156 16.168 10.628C16.168 11.124 16.084 11.556 15.916 11.924C15.74 12.284 15.524 12.564 15.268 12.764C15.012 12.964 14.688 13.124 14.296 13.244C13.896 13.356 13.52 13.428 13.168 13.46C12.808 13.492 12.396 13.508 11.932 13.508C11.532 13.508 11.184 13.5 10.888 13.484C10.592 13.46 10.26 13.42 9.892 13.364C9.516 13.3 9.2 13.204 8.944 13.076C8.68 12.948 8.432 12.784 8.2 12.584C7.968 12.384 7.792 12.124 7.672 11.804C7.552 11.476 7.492 11.1 7.492 10.676ZM8.548 10.016C8.452 10.208 8.404 10.428 8.404 10.676C8.404 10.924 8.452 11.144 8.548 11.336C8.636 11.528 8.74 11.684 8.86 11.804C8.98 11.924 9.16 12.028 9.4 12.116C9.632 12.204 9.828 12.268 9.988 12.308C10.148 12.34 10.38 12.368 10.684 12.392C10.98 12.416 11.192 12.428 11.32 12.428C11.44 12.428 11.644 12.428 11.932 12.428C12.212 12.428 12.444 12.424 12.628 12.416C12.812 12.408 13.052 12.388 13.348 12.356C13.644 12.324 13.892 12.268 14.092 12.188C14.284 12.108 14.48 12.008 14.68 11.888C14.872 11.768 15.02 11.604 15.124 11.396C15.22 11.18 15.268 10.932 15.268 10.652C15.268 10.412 15.224 10.2 15.136 10.016C15.048 9.824 14.944 9.668 14.824 9.548C14.704 9.428 14.536 9.328 14.32 9.248C14.096 9.16 13.904 9.096 13.744 9.056C13.576 9.016 13.356 8.988 13.084 8.972C12.804 8.948 12.6 8.936 12.472 8.936C12.336 8.928 12.14 8.924 11.884 8.924C11.604 8.924 11.404 8.924 11.284 8.924C11.164 8.924 10.956 8.936 10.66 8.96C10.364 8.984 10.136 9.016 9.976 9.056C9.816 9.088 9.62 9.148 9.388 9.236C9.156 9.324 8.98 9.428 8.86 9.548C8.74 9.668 8.636 9.824 8.548 10.016ZM15.076 1.48803L16 1.48803L16 7.03203C15.528 7.00803 15.116 6.93603 14.764 6.81603C14.412 6.69603 14.096 6.51203 13.816 6.26403C13.528 6.00803 13.292 5.76003 13.108 5.52003C12.924 5.28003 12.696 4.94003 12.424 4.50003C11.992 3.81203 11.668 3.36003 11.452 3.14403C11.012 2.69603 10.524 2.47203 9.988 2.47203C9.516 2.47203 9.132 2.62403 8.836 2.92803C8.532 3.23203 8.38 3.62803 8.38 4.11603C8.38 4.70003 8.584 5.12003 8.992 5.37603C9.392 5.62403 9.9 5.75603 10.516 5.77203L10.516 6.80403L10.288 6.80403C9.448 6.80403 8.772 6.55603 8.26 6.06003C7.748 5.55603 7.492 4.89203 7.492 4.06803C7.492 3.26003 7.716 2.61603 8.164 2.13603C8.612 1.65603 9.212 1.41603 9.964 1.41603C10.284 1.41603 10.588 1.47203 10.876 1.58403C11.156 1.68803 11.392 1.80803 11.584 1.94403C11.776 2.07203 11.98 2.27203 12.196 2.54403C12.412 2.80803 12.58 3.02803 12.7 3.20403C12.812 3.38003 12.968 3.63203 13.168 3.96003C13.56 4.61603 13.864 5.05203 14.08 5.26803C14.376 5.57203 14.708 5.76803 15.076 5.85603L15.076 1.48803Z" fill="#A68E52"/>
<line opacity="0.4" x1="12.5" y1="25" x2="12.5" y2="103" stroke="#DDDDDD"/>
<line x1="12.5" y1="25" x2="12.5" y2="50" stroke="#DDDDDD"/>
</svg>
